<?xml version="1.0" standalone="no"?>
<!DOCTYPE svg PUBLIC "-//W3C//DTD SVG 20010904//EN"
 "http://www.w3.org/TR/2001/REC-SVG-20010904/DTD/svg10.dtd">
<svg version="1.0" xmlns="http://www.w3.org/2000/svg"
 width="512.000000pt" height="512.000000pt" viewBox="0 0 512.000000 512.000000"
 preserveAspectRatio="xMidYMid meet">

<g transform="translate(0.000000,512.000000) scale(0.100000,-0.100000)"
fill="#000000" stroke="none">
<path d="M2300 5105 c-612 -67 -1151 -329 -1575 -766 -772 -795 -944 -1981
-430 -2966 356 -683 1019 -1177 1774 -1323 399 -78 800 -61 1195 50 658 185
1242 661 1561 1273 460 882 375 1929 -223 2727 -163 217 -401 440 -635 596
-478 319 -1099 471 -1667 409z m524 -550 c213 -28 410 -87 611 -185 254 -122
482 -300 660 -513 47 -56 85 -107 85 -113 0 -12 -258 -234 -271 -234 -4 0 -22
19 -40 43 -246 319 -586 533 -983 619 -87 19 -131 22 -326 22 -195 0 -239 -3
-326 -22 -550 -120 -989 -487 -1198 -1002 l-26 -65 1048 -1047 1047 -1048 65
26 c377 153 678 431 862 797 43 88 104 251 122 330 l6 27 -435 0 -435 0 0 185
0 185 640 0 640 0 0 -74 c0 -99 -24 -278 -54 -401 -170 -695 -718 -1267 -1398
-1456 l-111 -31 -1204 1205 -1205 1204 31 111 c210 752 877 1329 1661 1437
133 18 395 18 534 0z m-304 -4003 c-6 -2 -64 1 -130 7 -392 36 -747 172 -1053
403 -105 79 -296 270 -375 375 -228 302 -365 657 -402 1039 -5 60 -10 120 -10
134 0 20 192 -167 990 -965 545 -545 985 -992 980 -993z"/>
</g>
</svg>
