<?xml version="1.0" standalone="no"?>
<!DOCTYPE svg PUBLIC "-//W3C//DTD SVG 20010904//EN"
 "http://www.w3.org/TR/2001/REC-SVG-20010904/DTD/svg10.dtd">
<svg version="1.0" xmlns="http://www.w3.org/2000/svg"
 width="600.000000pt" height="56.000000pt" viewBox="0 0 600.000000 56.000000"
 preserveAspectRatio="xMidYMid meet">

<g transform="translate(0.000000,56.000000) scale(0.100000,-0.100000)"
fill="#000000" stroke="none">
<path d="M2323 549 l-63 -11 0 -126 c0 -112 3 -133 24 -177 27 -57 52 -83 115
-119 l45 -25 37 20 c50 25 100 76 125 125 16 32 19 61 19 168 l0 129 -30 9
c-49 14 -206 18 -272 7z m87 -30 c0 11 3 11 15 1 12 -10 15 -10 16 1 0 8 4 5
9 -6 8 -19 9 -19 9 -1 1 13 4 16 14 9 6 -6 20 -9 30 -8 10 2 17 -3 17 -11 0
-9 5 -12 10 -9 6 3 10 1 10 -5 0 -6 5 -8 10 -5 6 3 10 1 10 -5 0 -6 5 -8 12
-4 7 5 9 2 5 -9 -4 -12 -2 -14 10 -10 11 4 14 2 9 -5 -4 -7 -2 -12 5 -12 9 0
10 -3 3 -10 -5 -5 -81 -11 -168 -12 l-159 -3 72 -58 c40 -32 79 -61 87 -64 9
-3 45 19 87 54 107 88 101 88 94 4 -6 -72 -39 -161 -59 -161 -6 0 -32 18 -58
40 -26 22 -51 40 -55 40 -5 0 -33 -19 -63 -42 l-54 -42 -18 24 c-38 50 -54
176 -29 223 19 34 47 60 58 52 6 -3 11 -1 11 5 0 6 5 8 10 5 6 -3 10 2 10 12
0 15 2 16 10 3 8 -12 10 -12 10 5 0 17 2 17 10 5 8 -12 10 -12 10 -1z m80
-150 c0 -28 -2 -29 -44 -29 -48 0 -61 9 -51 39 4 14 16 18 50 19 43 0 45 -1
45 -29z m-30 -154 c0 -9 6 -12 16 -8 14 5 15 3 4 -18 -20 -36 -32 -40 -57 -17
-26 24 -30 43 -8 34 9 -3 15 0 15 9 0 8 7 15 15 15 8 0 15 -7 15 -15z"/>
<path d="M2522 314 c-23 -16 -29 -34 -12 -34 6 0 10 8 10 18 0 13 2 14 9 4 6
-11 10 -10 15 4 9 24 3 26 -22 8z"/>
<path d="M2304 294 c-8 -31 12 -57 22 -30 4 11 2 21 -6 26 -9 6 -8 10 6 19 17
9 17 10 2 11 -11 0 -20 -10 -24 -26z"/>
<path d="M2350 307 c0 -8 7 -21 16 -28 14 -11 15 -10 12 11 -3 26 -28 41 -28
17z"/>
<path d="M2576 275 c-9 -26 -7 -32 5 -12 6 10 9 21 6 23 -2 3 -7 -2 -11 -11z"/>
<path d="M2512 258 c3 -7 13 -15 24 -17 16 -3 17 -1 5 13 -16 19 -34 21 -29 4z"/>
<path d="M2345 250 c-3 -5 1 -10 9 -10 9 0 16 5 16 10 0 6 -4 10 -9 10 -6 0
-13 -4 -16 -10z"/>
<path d="M18 533 c27 -5 22 5 112 -241 35 -95 66 -169 70 -165 4 4 27 65 50
135 43 126 56 157 63 148 1 -3 25 -66 51 -140 27 -74 52 -139 56 -143 4 -5 37
84 74 197 64 194 69 205 94 209 15 2 -2 4 -38 4 -36 0 -53 -2 -37 -4 15 -2 27
-8 27 -12 0 -24 -88 -275 -96 -273 -8 3 -104 255 -104 273 0 4 12 10 28 12 15
2 -13 4 -63 4 -50 0 -78 -2 -64 -4 20 -3 30 -14 42 -43 15 -39 14 -43 -21
-145 -20 -58 -39 -105 -42 -105 -7 0 -101 259 -100 277 0 6 10 14 23 16 12 2
-16 4 -63 4 -47 0 -74 -2 -62 -4z"/>
<path d="M3041 521 c-1 -23 -2 -23 -27 -6 -14 9 -28 15 -30 12 -2 -2 6 -9 19
-16 13 -7 31 -24 40 -39 l16 -27 0 25 c-1 14 -5 36 -9 50 l-8 25 -1 -24z"/>
<path d="M2792 338 l-2 -197 -27 -4 c-16 -2 45 -5 135 -6 148 -1 162 0 161 17
0 10 -3 12 -6 5 -2 -7 -14 -13 -25 -13 -21 0 -21 0 -2 23 l19 22 -23 -20 c-18
-15 -42 -21 -98 -23 l-74 -4 -3 198 -2 199 -3 -197 c-2 -190 -3 -198 -22 -198
-19 0 -20 8 -23 198 l-2 197 -3 -197z"/>
<path d="M3843 514 c-3 -8 2 -23 11 -32 15 -15 17 -15 32 0 21 21 11 48 -16
48 -11 0 -23 -7 -27 -16z m45 -11 c-2 -10 -10 -18 -18 -18 -8 0 -16 8 -18 18
-2 12 3 17 18 17 15 0 20 -5 18 -17z"/>
<path d="M5227 523 c-12 -12 -7 -41 8 -47 12 -4 13 -2 3 14 -14 22 -6 35 18
26 10 -4 14 -12 9 -24 -4 -12 -3 -14 5 -6 15 15 2 44 -19 44 -10 0 -21 -3 -24
-7z"/>
<path d="M1182 466 c-10 -26 -24 -42 -49 -54 -32 -15 -33 -17 -13 -22 22 -5
23 -9 21 -101 -2 -108 8 -144 44 -161 21 -9 32 -8 60 5 19 9 35 22 35 28 0 7
-9 4 -21 -7 -15 -14 -24 -16 -37 -8 -14 9 -17 31 -20 128 l-3 116 38 1 38 2
-35 6 c-34 6 -35 8 -40 55 l-5 50 -13 -38z"/>
<path d="M2960 409 c0 -29 -18 -59 -35 -59 -22 0 -18 -14 8 -25 15 -7 24 -22
28 -50 4 -27 7 -7 8 58 0 53 -1 97 -4 97 -3 0 -5 -9 -5 -21z m0 -71 c0 -16 -3
-19 -11 -11 -6 6 -8 16 -5 22 11 17 16 13 16 -11z"/>
<path d="M917 405 c-38 -12 -55 -52 -41 -92 6 -20 25 -36 60 -53 70 -34 84
-47 84 -80 0 -30 -15 -40 -56 -40 -36 0 -62 17 -84 53 -19 31 -20 31 -19 7 1
-35 12 -65 24 -65 6 -1 29 -4 51 -9 84 -15 147 38 127 109 -7 24 -22 37 -78
65 -58 29 -71 40 -73 63 -7 57 83 52 119 -7 15 -25 19 -27 19 -11 0 51 -10 63
-57 67 -25 2 -59 -1 -76 -7z"/>
<path d="M1746 406 c-15 -6 -34 -22 -41 -36 l-14 -25 -1 32 0 32 -52 -6 c-59
-6 -76 -13 -35 -13 l27 0 0 -124 0 -125 -27 -4 c-16 -2 10 -4 57 -4 47 0 72 2
57 4 l-29 5 4 98 c2 81 7 104 24 127 27 36 51 42 50 11 -1 -14 6 -24 18 -26
25 -5 39 12 32 36 -8 25 -35 32 -70 18z"/>
<path d="M2015 409 c-15 -5 -38 -18 -51 -30 l-24 -22 0 27 c0 22 -4 27 -16 22
-9 -3 -32 -7 -52 -7 -31 -2 -32 -3 -9 -6 l27 -4 0 -124 0 -124 -27 -4 c-16 -2
8 -4 52 -4 44 0 67 2 51 4 l-29 5 5 98 c5 108 20 145 62 156 13 3 34 1 45 -6
20 -10 21 -19 21 -130 0 -115 -1 -119 -22 -123 -13 -2 11 -4 52 -4 41 0 65 2
53 4 -22 4 -23 8 -23 116 0 125 -10 152 -58 159 -16 2 -41 1 -57 -3z"/>
<path d="M625 399 c-79 -40 -86 -205 -11 -254 60 -39 149 -22 185 35 14 22 11
21 -22 -7 -39 -34 -81 -42 -117 -23 -20 11 -40 66 -40 113 l0 27 95 0 c90 0
95 1 95 21 0 30 -29 76 -57 88 -29 13 -101 13 -128 0z m104 -13 c7 -8 15 -30
18 -50 l6 -36 -67 0 c-51 0 -66 3 -66 14 0 23 20 70 33 78 20 13 64 9 76 -6z"/>
<path d="M1368 394 c-39 -21 -58 -64 -58 -133 0 -49 4 -65 25 -90 31 -36 82
-54 129 -46 35 7 86 45 86 64 0 5 -13 -4 -29 -20 -35 -34 -86 -39 -121 -11
-18 14 -24 32 -28 75 l-4 57 96 0 c59 0 96 4 96 10 0 24 -30 79 -51 94 -29 20
-104 20 -141 0z m112 -13 c5 -11 10 -33 10 -50 l0 -31 -60 0 c-59 0 -60 0 -60
28 0 44 26 72 65 72 24 0 38 -6 45 -19z"/>
<path d="M3220 381 c0 -17 4 -32 8 -35 4 -2 6 11 4 30 -5 42 -12 45 -12 5z"/>
<path d="M3310 403 c46 -9 50 -19 52 -147 l2 -121 3 119 c3 79 0 123 -8 132
-13 16 -1 18 21 4 11 -7 16 -38 21 -132 l5 -123 2 118 c2 105 0 119 -18 137
-14 14 -32 20 -62 19 -28 -1 -34 -3 -18 -6z"/>
<path d="M3539 381 c-28 -28 -39 -74 -21 -85 5 -3 7 7 4 22 -2 18 4 37 16 52
l19 24 -4 -49 c-5 -54 9 -105 29 -105 9 0 8 3 -2 10 -11 7 -15 27 -15 75 0 48
4 68 15 75 11 7 12 10 2 10 -8 0 -27 -13 -43 -29z"/>
<path d="M3643 403 c10 -3 14 -10 11 -16 -4 -7 -4 -9 1 -5 4 4 15 2 24 -4 10
-8 9 -4 -3 10 -11 12 -26 21 -35 21 -13 -1 -13 -2 2 -6z"/>
<path d="M3736 394 c-7 -18 0 -34 15 -34 12 0 12 37 0 44 -5 3 -12 -1 -15 -10z"/>
<path d="M3894 275 c0 -77 2 -107 3 -67 2 40 2 103 0 140 -2 37 -3 4 -3 -73z"/>
<path d="M4050 400 c-23 -7 -23 -8 -3 -9 12 -1 24 -9 26 -18 3 -11 5 -7 6 10
0 15 0 27 -1 26 -2 -1 -14 -5 -28 -9z"/>
<path d="M4170 403 c14 -3 30 -9 35 -14 6 -6 13 -65 16 -132 l5 -122 2 113 c1
63 -3 122 -8 133 -15 27 5 25 24 -3 9 -13 16 -17 16 -9 0 23 -33 40 -75 39
-27 0 -32 -2 -15 -5z"/>
<path d="M4408 394 c-16 -8 -28 -17 -28 -20 0 -3 5 -2 10 1 7 4 9 -9 5 -37
l-5 -43 10 39 c6 22 18 48 27 58 19 22 17 22 -19 2z"/>
<path d="M4510 395 c7 -9 15 -13 18 -10 3 3 13 -1 22 -7 9 -7 5 -3 -8 10 -26
25 -52 31 -32 7z"/>
<path d="M4685 379 c-19 -17 -35 -38 -34 -48 0 -11 3 -10 9 5 10 26 30 40 30
22 0 -7 6 -4 12 7 6 11 18 26 26 33 9 7 11 12 4 12 -6 0 -27 -14 -47 -31z"/>
<path d="M4807 386 c12 -16 20 -20 25 -12 4 6 0 17 -9 24 -27 20 -35 14 -16
-12z"/>
<path d="M4975 403 c-19 -3 -20 -10 -17 -133 l3 -129 -28 -4 c-15 -2 8 -4 52
-4 44 0 67 2 52 4 l-28 4 1 97 c2 146 1 172 -7 171 -5 -1 -17 -4 -28 -6z m27
-165 c-3 -77 -6 -98 -18 -98 -19 0 -21 246 -1 253 17 6 23 -40 19 -155z"/>
<path d="M5044 388 l-19 -23 23 19 c12 11 22 21 22 23 0 8 -8 2 -26 -19z"/>
<path d="M5118 392 c20 -22 25 -21 16 2 -3 9 -12 16 -20 16 -11 0 -10 -4 4
-18z"/>
<path d="M5270 403 c0 -6 -11 -8 -25 -5 l-25 4 6 -74 c4 -41 4 -100 0 -131 -6
-46 -11 -57 -29 -61 -19 -4 -18 -4 3 -3 32 3 43 52 37 170 -4 69 -2 87 9 87
11 0 14 -27 16 -127 l2 -128 5 135 c3 74 5 137 4 139 -2 2 -3 0 -3 -6z"/>
<path d="M5452 380 c0 -19 2 -27 5 -17 2 9 2 25 0 35 -3 9 -5 1 -5 -18z"/>
<path d="M5540 403 c14 -3 30 -9 35 -14 6 -6 13 -65 16 -132 l5 -122 2 113 c1
63 -3 122 -8 133 -13 24 2 25 23 1 13 -14 17 -44 20 -132 l3 -115 2 117 c2
109 0 119 -20 138 -15 14 -34 20 -62 19 -28 -1 -33 -3 -16 -6z"/>
<path d="M5785 398 c-22 -12 -35 -28 -35 -42 0 -6 7 -1 15 10 13 17 14 14 15
-40 0 -33 -3 -56 -6 -53 -10 9 -44 -38 -44 -61 0 -19 29 -52 45 -52 5 0 0 7
-11 15 -14 11 -16 15 -4 15 12 0 11 3 -2 11 -24 14 -22 35 4 53 20 14 23 14
31 1 4 -8 13 -15 18 -15 6 0 3 7 -5 16 -11 10 -16 34 -16 69 0 35 5 59 16 69
18 19 8 20 -21 4z"/>
<path d="M5868 403 c6 -2 12 -12 13 -21 0 -11 2 -13 6 -4 3 7 10 10 17 5 7 -4
3 0 -7 10 -11 9 -24 17 -31 16 -7 0 -7 -2 2 -6z"/>
<path d="M5966 394 c-7 -19 1 -34 17 -34 7 0 6 4 -3 10 -12 8 -13 11 -1 19 8
5 9 11 3 15 -5 3 -13 -1 -16 -10z"/>
<path d="M3180 268 l5 -133 3 125 c2 84 7 127 15 132 8 5 5 8 -8 8 -19 0 -20
-5 -15 -132z"/>
<path d="M3850 268 l5 -133 3 125 c2 84 7 127 15 132 8 5 5 8 -8 8 -19 0 -20
-5 -15 -132z"/>
<path d="M5410 268 l5 -133 3 125 c2 84 7 127 15 132 8 5 5 8 -8 8 -19 0 -20
-5 -15 -132z"/>
<path d="M5094 370 c1 -8 10 -16 21 -17 15 -1 15 0 3 3 -9 3 -19 11 -21 17 -2
7 -3 5 -3 -3z"/>
<path d="M4851 380 c-1 -3 6 -23 14 -45 8 -22 14 -31 14 -20 0 17 -28 80 -28
65z"/>
<path d="M3663 325 c0 -27 2 -38 4 -22 2 15 2 37 0 50 -2 12 -4 0 -4 -28z"/>
<path d="M4533 335 c0 -22 2 -30 4 -17 2 12 2 30 0 40 -3 9 -5 -1 -4 -23z"/>
<path d="M3690 329 c0 -17 -5 -40 -11 -52 -10 -21 -10 -21 5 -3 15 18 23 86
11 86 -3 0 -5 -14 -5 -31z"/>
<path d="M5891 330 c0 -19 -8 -48 -16 -63 -10 -19 -11 -27 -3 -25 16 6 30 63
25 97 -3 21 -4 20 -6 -9z"/>
<path d="M5920 351 c0 -6 4 -13 10 -16 6 -3 7 1 4 9 -7 18 -14 21 -14 7z"/>
<path d="M4832 325 c0 -16 2 -22 5 -12 2 9 2 23 0 30 -3 6 -5 -1 -5 -18z"/>
<path d="M4682 320 c0 -14 2 -19 5 -12 2 6 2 18 0 25 -3 6 -5 1 -5 -13z"/>
<path d="M5454 240 c0 -58 1 -81 3 -52 2 28 2 76 0 105 -2 28 -3 5 -3 -53z"/>
<path d="M5741 324 c0 -11 3 -14 6 -6 3 7 2 16 -1 19 -3 4 -6 -2 -5 -13z"/>
<path d="M3224 235 c0 -55 1 -76 3 -47 2 29 2 74 0 100 -2 26 -3 2 -3 -53z"/>
<path d="M4352 305 c0 -16 2 -22 5 -12 2 9 2 23 0 30 -3 6 -5 -1 -5 -18z"/>
<path d="M4582 310 c0 -14 2 -19 5 -12 2 6 2 18 0 25 -3 6 -5 1 -5 -13z"/>
<path d="M4074 230 c0 -52 1 -74 3 -47 2 26 2 68 0 95 -2 26 -3 4 -3 -48z"/>
<path d="M5912 288 c-10 -30 -10 -31 3 -14 13 17 21 46 12 46 -1 0 -8 -15 -15
-32z"/>
<path d="M4643 270 c0 -25 2 -35 4 -22 2 12 2 32 0 45 -2 12 -4 2 -4 -23z"/>
<path d="M4393 255 c0 -22 2 -30 4 -17 2 12 2 30 0 40 -3 9 -5 -1 -4 -23z"/>
<path d="M4683 255 c0 -22 2 -30 4 -17 2 12 2 30 0 40 -3 9 -5 -1 -4 -23z"/>
<path d="M3640 255 c-8 -9 -8 -15 -2 -15 12 0 26 19 19 26 -2 2 -10 -2 -17
-11z"/>
<path d="M3068 227 c-8 -17 -13 -39 -10 -47 3 -8 11 5 18 30 16 54 13 61 -8
17z"/>
<path d="M4350 231 c0 -17 4 -32 8 -35 4 -2 6 11 4 30 -5 42 -12 45 -12 5z"/>
<path d="M3510 195 c0 -8 9 -20 19 -27 19 -13 18 -15 -15 -41 -19 -16 -34 -36
-33 -45 0 -14 2 -14 10 3 8 17 9 16 6 -7 -3 -16 1 -32 7 -37 8 -7 10 3 8 35
-4 39 -1 45 22 55 32 15 33 25 5 40 -15 8 -18 13 -10 19 9 5 9 9 -3 13 -10 4
-16 1 -16 -8z"/>
<path d="M4401 194 c0 -11 3 -14 6 -6 3 7 2 16 -1 19 -3 4 -6 -2 -5 -13z"/>
<path d="M4650 201 c0 -6 4 -13 10 -16 6 -3 7 1 4 9 -7 18 -14 21 -14 7z"/>
<path d="M3578 183 c18 -2 45 -2 60 0 15 2 0 4 -33 4 -33 0 -45 -2 -27 -4z"/>
<path d="M5808 183 c18 -2 45 -2 60 0 15 2 0 4 -33 4 -33 0 -45 -2 -27 -4z"/>
<path d="M3685 173 c24 -6 45 -22 45 -35 0 -5 -9 -4 -21 2 -11 7 -23 9 -26 7
-2 -3 4 -8 15 -11 26 -9 42 -47 30 -72 -9 -19 -9 -19 6 0 9 11 16 30 16 42 0
31 -37 74 -63 73 -21 -1 -21 -2 -2 -6z"/>
<path d="M4370 176 c0 -2 8 -10 18 -17 15 -13 16 -12 3 4 -13 16 -21 21 -21
13z"/>
<path d="M4700 169 c0 -6 -7 -9 -15 -5 -26 10 -16 -3 15 -19 16 -8 39 -15 52
-14 18 1 15 4 -13 13 -21 6 -34 16 -32 24 3 6 2 12 -1 12 -3 0 -6 -5 -6 -11z"/>
<path d="M4849 163 c-13 -16 -12 -17 4 -4 16 13 21 21 13 21 -2 0 -10 -8 -17
-17z"/>
<path d="M5917 173 c24 -5 49 -30 40 -40 -4 -3 -13 0 -22 7 -9 7 -18 10 -22 6
-3 -3 -2 -6 3 -6 6 0 20 -9 32 -20 l22 -21 0 24 c0 29 -29 58 -56 56 -16 -2
-16 -2 3 -6z"/>
<path d="M3598 153 c12 -2 32 -2 45 0 12 2 2 4 -23 4 -25 0 -35 -2 -22 -4z"/>
<path d="M5828 153 c12 -2 30 -2 40 0 9 3 -1 5 -23 4 -22 0 -30 -2 -17 -4z"/>
<path d="M4420 140 c8 -5 26 -9 40 -9 l25 1 -25 8 c-14 4 -32 8 -40 9 -13 1
-13 0 0 -9z"/>
<path d="M3138 133 c6 -2 18 -2 25 0 6 3 1 5 -13 5 -14 0 -19 -2 -12 -5z"/>
<path d="M3248 133 c7 -3 16 -2 19 1 4 3 -2 6 -13 5 -11 0 -14 -3 -6 -6z"/>
<path d="M3328 133 c7 -3 16 -2 19 1 4 3 -2 6 -13 5 -11 0 -14 -3 -6 -6z"/>
<path d="M3428 133 c7 -3 16 -2 19 1 4 3 -2 6 -13 5 -11 0 -14 -3 -6 -6z"/>
<path d="M3808 133 c6 -2 18 -2 25 0 6 3 1 5 -13 5 -14 0 -19 -2 -12 -5z"/>
<path d="M3918 133 c7 -3 16 -2 19 1 4 3 -2 6 -13 5 -11 0 -14 -3 -6 -6z"/>
<path d="M3998 133 c7 -3 16 -2 19 1 4 3 -2 6 -13 5 -11 0 -14 -3 -6 -6z"/>
<path d="M4108 133 c7 -3 16 -2 19 1 4 3 -2 6 -13 5 -11 0 -14 -3 -6 -6z"/>
<path d="M4178 133 c6 -2 18 -2 25 0 6 3 1 5 -13 5 -14 0 -19 -2 -12 -5z"/>
<path d="M4288 133 c6 -2 18 -2 25 0 6 3 1 5 -13 5 -14 0 -19 -2 -12 -5z"/>
<path d="M5288 133 c6 -2 18 -2 25 0 6 3 1 5 -13 5 -14 0 -19 -2 -12 -5z"/>
<path d="M5368 133 c6 -2 18 -2 25 0 6 3 1 5 -13 5 -14 0 -19 -2 -12 -5z"/>
<path d="M5478 133 c7 -3 16 -2 19 1 4 3 -2 6 -13 5 -11 0 -14 -3 -6 -6z"/>
<path d="M5558 133 c7 -3 16 -2 19 1 4 3 -2 6 -13 5 -11 0 -14 -3 -6 -6z"/>
<path d="M5658 133 c6 -2 18 -2 25 0 6 3 1 5 -13 5 -14 0 -19 -2 -12 -5z"/>
<path d="M5737 122 c-24 -26 -20 -92 4 -92 6 0 5 8 -1 19 -16 31 -12 59 12 75
12 9 18 16 12 16 -6 0 -18 -8 -27 -18z"/>
</g>
</svg>
